# xmcd
# Copyright (C) 1995-1998 Ti Kan
#
# Track frame offsets:
#       150
#       17158
#       29224
#       41039
#       54476
#       69458
#       82435
#       97315
#       111858
#       129333
#       143224
#       159514
#       168667
#
# Disc length: 2410 seconds
#
# Revision: 0
# Processed by: cddbd v1.5.2PL0 Copyright (c) Steve Scherf et al.
# Submitted via: CD-Import v1.0
#
DISCID=c309680d
DTITLE=Kassette - Chambre 4
DYEAR=07
DGENRE=
TTITLE0=Daydream
TTITLE1=Holidays
TTITLE2=Obvious
TTITLE3=Lila
TTITLE4=Out Of Reach
TTITLE5=Rakete
TTITLE6=It's On
TTITLE7=Chambre 4
TTITLE8=Betty
TTITLE9=Tourismo
TTITLE10=More
TTITLE11=No Gift
TTITLE12=Zebra
EXTD=
EXTT0=
EXTT1=
EXTT2=
EXTT3=
EXTT4=
EXTT5=
EXTT6=
EXTT7=
EXTT8=
EXTT9=
EXTT10=
EXTT11=
EXTT12=
PLAYORDER=
